<svg xmlns="http://www.w3.org/2000/svg" viewBox="0 0 512 512" role="img" aria-label="Egroo themed app icon">
  <path
    fill="#000000"
    fill-rule="evenodd"
    d="M128 112c-35.346 0-64 28.654-64 64v128c0 35.346 28.654 64 64 64h44v60c0 8.979 10.844 13.476 17.191 7.129L256.32 368H384c35.346 0 64-28.654 64-64V176c0-35.346-28.654-64-64-64H128Zm52 92c0-8.837 7.163-16 16-16h160c8.837 0 16 7.163 16 16s-7.163 16-16 16H196c-8.837 0-16-7.163-16-16Zm0 52c0-8.837 7.163-16 16-16h108c8.837 0 16 7.163 16 16s-7.163 16-16 16H196c-8.837 0-16-7.163-16-16Zm0 52c0-8.837 7.163-16 16-16h136c8.837 0 16 7.163 16 16s-7.163 16-16 16H196c-8.837 0-16-7.163-16-16Z"
    clip-rule="evenodd" />
</svg>